<?xml version="1.0" encoding="utf-8"?>
<!-- Generator: Adobe Illustrator 16.0.4, SVG Export Plug-In . SVG Version: 6.00 Build 0)  -->
<!DOCTYPE svg PUBLIC "-//W3C//DTD SVG 1.1//EN" "http://www.w3.org/Graphics/SVG/1.1/DTD/svg11.dtd">
<svg version="1.1" id="Layer_1" xmlns="http://www.w3.org/2000/svg" xmlns:xlink="http://www.w3.org/1999/xlink" x="0px" y="0px"
	 width="126.84px" height="33.422px" viewBox="45.001 6.053 126.84 33.422" enable-background="new 45.001 6.053 126.84 33.422"
	 xml:space="preserve">
<polygon fill="#211F1F" points="45.001,6.316 60.001,6.316 60.001,10.79 50.526,10.79 50.526,17.105 59.475,17.105 59.475,21.579 
	50.526,21.579 50.526,32.896 45.001,32.896 "/>
<rect x="61.316" y="6.316" fill="#211F1F" width="5" height="26.581"/>
<path fill="#211F1F" d="M68.948,12.895h5.263v20h-5.263V12.895z M68.948,6.053h5.263v4.474h-5.263V6.053z"/>
<g>
	<g>
		<path fill="#211F1F" d="M84.53,29.579c2.255,0,2.705-2.233,2.705-6.588c0-4.355-0.45-6.589-2.705-6.589
			c-2.291,0-2.741,2.234-2.741,6.589C81.789,27.346,82.239,29.579,84.53,29.579 M76.58,12.895h5V15h0.059
			c1.127-1.842,2.554-2.593,4.582-2.593c4.245,0,6.196,3.115,6.196,10.559c0,7.443-1.951,10.502-6.196,10.502
			c-1.953,0-3.269-0.836-4.357-2.415h-0.021v8.422H76.58V12.895z"/>
	</g>
	<g>
		<path fill="#211F1F" d="M102.072,29.579c2.254,0,2.705-2.233,2.705-6.588c0-4.356-0.451-6.589-2.705-6.589
			c-2.291,0-2.74,2.233-2.74,6.589C99.332,27.346,99.781,29.579,102.072,29.579 M94.21,6.316h5v8.421h0.195
			c1.09-1.579,2.404-2.331,4.356-2.331c4.243,0,6.196,3.115,6.196,10.559c0,7.444-1.953,10.501-6.196,10.501
			c-2.027,0-3.456-0.834-4.583-2.676h0.031v2.104h-5V6.316L94.21,6.316z"/>
	</g>
	<g>
		<path fill="#211F1F" d="M118.976,30.023c2.104,0,2.781-2.047,2.781-7.033c0-4.987-0.678-7.035-2.781-7.035
			c-2.553,0-2.777,2.941-2.777,7.035C116.199,27.085,116.423,30.023,118.976,30.023 M118.976,12.456
			c6.234-0.112,7.964,3.574,7.964,10.534c0,6.851-2.028,10.533-7.964,10.533c-6.232,0.111-7.962-3.572-7.962-10.533
			C111.014,16.141,113.042,12.456,118.976,12.456"/>
	</g>
	<g>
		<path fill="#211F1F" d="M137.896,22.991c-0.79,0.521-1.57,0.854-2.21,1.004c-2.103,0.446-2.927,1.45-2.927,3.237
			c0,1.526,0.559,2.793,1.949,2.793c1.39,0,3.188-0.895,3.188-3.09V22.991z M128.421,19.21v-0.575c0-4.616,3.219-6.179,7.125-6.179
			c6.16,0,7.35,2.531,7.35,6.141v10.534c0,1.861,0.083,2.711,0.609,3.764h-4.959c-0.338-0.526-0.488-1.315-0.641-2.104h-0.074
			c-1.201,2.104-2.666,2.67-5.146,2.67c-3.604,0-4.882-3.021-4.882-5.7c0-3.759,1.539-5.269,5.107-6.236l2.93-0.773
			c1.541-0.409,2.063-1.001,2.063-2.34c0-1.527-0.646-2.455-2.372-2.455c-1.578,0-2.375,1.044-2.375,2.607v0.65h-4.736V19.21z"/>
	</g>
	<g>
		<path fill="#211F1F" d="M145.264,12.895h5v2.632h0.077c1.054-1.843,2.574-3.136,4.716-3.136c0.301,0,0.471,0.103,0.996,0.139
			v4.914c-0.525-0.037-1.13-0.074-1.655-0.074c-1.803,0-3.87,0.93-3.87,3.61v11.916h-5.264V12.895z"/>
	</g>
	<g>
		<path fill="#211F1F" d="M163.977,29.579c2.291,0,2.742-2.233,2.742-6.588c0-4.355-0.451-6.59-2.742-6.59
			c-2.254,0-2.705,2.234-2.705,6.59C161.271,27.346,161.723,29.579,163.977,29.579 M166.843,30.79h0.025
			c-1.127,1.842-2.556,2.688-4.582,2.688c-4.244,0-6.197-3.067-6.197-10.512c0-7.445,1.953-10.574,6.197-10.574
			c1.951,0,3.269,0.764,4.356,2.343h0.198V6.315h5v26.58h-5V30.79H166.843z"/>
	</g>
</g>
</svg>
